# xmcd CD database file
#
# Track frame offsets:
#	150
#	18370
#	42972
#
# Disc length: 815 seconds
#
# Revision: 0
# Processed by: cddbd v1.5PL3 Copyright (c) Steve Scherf et al.
# Submitted via: CDex 1.40Release
#
DISCID=1a032d03
DTITLE=YURIMARI - Hello, I love you.
DYEAR=1989
DGENRE=JPop
TTITLE0=Hello, I love you.
TTITLE1=Hello, I love you. (Industrial Mix)
TTITLE2=Hello, I love you. (Instrumental)
EXTD=YEAR: 1989
EXTT0=
EXTT1=
EXTT2=
PLAYORDER=
